<svg version="1.1" id="Layer_1" xmlns="http://www.w3.org/2000/svg" xmlns:xlink="http://www.w3.org/1999/xlink" x="0px" y="0px"
	 width="100%" viewBox="0 0 522 130" enable-background="new 0 0 522 130" xml:space="preserve">
<path fill="#000001" opacity="1.000000" stroke="none" 
	d="
M405.000000,131.000000 
	C270.000000,131.000000 135.500000,131.000000 1.000000,131.000000 
	C1.000000,87.666664 1.000000,44.333332 1.000000,1.000000 
	C175.000000,1.000000 349.000000,1.000000 523.000000,1.000000 
	C523.000000,44.333332 523.000000,87.666664 523.000000,131.000000 
	C483.833344,131.000000 444.666656,131.000000 405.000000,131.000000 
M20.585339,39.471611 
	C20.328747,39.685585 20.199255,39.959663 19.532770,40.428379 
	C18.067938,44.323524 15.435493,48.189705 15.338012,52.118774 
	C14.887684,70.269661 15.112837,88.438110 15.155677,106.600128 
	C15.182264,117.871620 24.687996,127.348831 36.023808,127.396965 
	C49.327831,127.453453 62.632599,127.469330 75.936478,127.397697 
	C98.699181,127.275146 121.461243,126.972725 144.223953,126.922432 
	C184.213959,126.834061 224.204285,126.854607 264.194397,126.901215 
	C268.809479,126.906593 273.424042,127.367630 278.962677,127.728020 
	C288.432709,127.839455 297.902802,128.018341 307.372772,128.012512 
	C309.600281,128.011124 311.827423,127.386307 314.979645,126.937119 
	C325.298157,126.933571 335.619843,127.094421 345.934509,126.894226 
	C372.090790,126.386566 398.524689,131.710007 424.282440,122.610558 
	C436.279602,118.372314 448.588898,115.016830 460.760712,111.274193 
	C472.305664,107.724297 483.843231,104.149483 495.408478,100.666771 
	C502.285095,98.595985 509.200195,96.540131 514.052734,90.832314 
	C515.181763,89.504280 515.221741,87.250404 515.957275,84.738388 
	C516.103149,84.285545 516.249084,83.832695 517.102051,83.268890 
	C517.151733,82.382263 517.201416,81.495644 517.238281,79.743439 
	C517.263062,76.491013 517.287903,73.238586 518.107239,69.730499 
	C517.844116,67.824753 517.580994,65.919006 517.259583,63.212189 
	C517.276672,62.141991 517.293762,61.071789 518.085999,59.785587 
	C517.846863,58.390827 517.607727,56.996067 517.301453,54.813053 
	C517.273071,44.344658 517.244690,33.876259 517.695801,22.966431 
	C517.325745,20.874418 517.194336,18.704346 516.540283,16.705271 
	C514.696655,11.070544 506.828003,5.295061 500.828064,5.483319 
	C498.553741,5.456324 496.279449,5.429328 493.404510,4.821036 
	C487.602325,5.004253 481.800110,5.187470 475.061218,5.385026 
	C447.768341,5.384191 420.475433,5.383356 392.338837,5.094521 
	C391.168915,5.190530 389.999023,5.286540 387.913727,5.371807 
	C369.947571,5.361261 351.981384,5.350716 333.447845,4.720344 
	C326.965271,4.925672 320.482697,5.131000 313.063324,5.364749 
	C265.379364,5.363883 217.695389,5.363019 169.419220,4.790040 
	C165.612518,4.980887 161.805832,5.171734 157.336700,5.369533 
	C156.895264,5.358185 156.453842,5.346838 155.520370,4.709394 
	C153.014099,4.922347 150.507828,5.135300 147.336716,5.373696 
	C146.893204,5.371441 146.449677,5.369187 145.423294,4.763866 
	C137.796478,4.801997 129.976196,3.785118 122.590752,5.139492 
	C112.883232,6.919701 103.514877,10.556000 94.006287,13.412827 
	C77.322296,18.425480 60.591423,23.290682 43.983837,28.545246 
	C36.322639,30.969213 28.046509,32.328838 21.698946,38.757065 
	C21.414387,38.905148 21.196651,39.120743 20.585339,39.471611 
z"/>
<path fill="#513B6A" opacity="1.000000" stroke="none" 
	d="
M278.038849,127.617409 
	C273.424042,127.367630 268.809479,126.906593 264.194397,126.901215 
	C224.204285,126.854607 184.213959,126.834061 144.223953,126.922432 
	C121.461243,126.972725 98.699181,127.275146 75.936478,127.397697 
	C62.632599,127.469330 49.327831,127.453453 36.023808,127.396965 
	C24.687996,127.348831 15.182264,117.871620 15.155677,106.600128 
	C15.112837,88.438110 14.887684,70.269661 15.338012,52.118774 
	C15.435493,48.189705 18.067938,44.323524 20.015129,40.646439 
	C20.595486,41.056271 20.693485,41.248043 20.763332,41.684822 
	C19.424583,45.294571 17.043076,48.639908 16.981689,52.027287 
	C16.648094,70.435829 16.525467,88.865486 17.072052,107.265839 
	C17.372297,117.373283 25.184320,124.140709 35.245472,124.436005 
	C37.723789,124.413445 39.832413,124.251297 42.384964,124.268234 
	C63.304558,124.506874 83.780212,124.613289 104.255890,124.618042 
	C203.660248,124.641136 303.064606,124.647339 402.468933,124.594650 
	C405.593811,124.592995 408.718262,123.884094 412.188965,123.581856 
	C414.215820,123.019012 415.896698,122.379227 417.953979,121.657196 
	C424.211090,119.641365 430.091766,117.707779 436.315674,115.807693 
	C438.114136,115.248535 439.569397,114.655861 441.348572,114.087982 
	C442.454376,113.787209 443.236298,113.461655 444.415649,113.158432 
	C459.206635,108.652824 473.600220,104.124893 488.387207,99.653961 
	C490.847168,98.966240 492.913666,98.221527 495.304932,97.511711 
	C496.063049,97.510170 496.496490,97.473732 497.281982,97.570908 
	C502.665253,94.841080 507.696503,91.977638 512.920288,88.971558 
	C513.410217,88.280121 513.707520,87.731323 514.089966,86.926033 
	C514.704346,86.253868 515.233582,85.838196 515.762817,85.422531 
	C515.221741,87.250404 515.181763,89.504280 514.052734,90.832314 
	C509.200195,96.540131 502.285095,98.595985 495.408478,100.666771 
	C483.843231,104.149483 472.305664,107.724297 460.760712,111.274193 
	C448.588898,115.016830 436.279602,118.372314 424.282440,122.610558 
	C398.524689,131.710007 372.090790,126.386566 345.934509,126.894226 
	C335.619843,127.094421 325.298157,126.933571 314.045593,126.948128 
	C308.318634,126.941032 303.523682,126.825859 298.733337,126.927925 
	C291.833405,127.074951 284.936859,127.379875 278.038849,127.617409 
z"/>
<path fill="#B183BF" opacity="1.000000" stroke="none" 
	d="
M170.011429,5.362153 
	C217.695389,5.363019 265.379364,5.363883 313.881531,5.570514 
	C321.138245,5.630910 327.576752,5.485540 334.015228,5.340171 
	C351.981384,5.350716 369.947571,5.361261 388.641113,5.571399 
	C390.639862,5.641500 391.911224,5.512010 393.182556,5.382521 
	C420.475433,5.383356 447.768341,5.384191 475.881592,5.594282 
	C482.469696,5.669804 488.237427,5.536068 494.005127,5.402332 
	C496.279449,5.429328 498.553741,5.456324 501.396851,5.789704 
	C502.773010,6.960772 503.580383,7.825454 503.994781,8.757383 
	C503.073334,8.869818 502.544861,8.915003 501.617249,8.885010 
	C497.769226,8.830977 494.320343,8.852124 490.442993,8.873934 
	C487.729126,8.884521 485.443665,8.894445 482.852936,8.702560 
	C481.352081,8.334998 480.156525,8.169248 478.495148,7.982092 
	C457.365112,7.984011 436.700928,8.007335 415.568909,8.002297 
	C410.725769,8.002622 406.350464,8.031306 401.606873,8.035215 
	C400.500885,8.015822 399.763153,8.021206 398.621979,7.998424 
	C396.426514,8.278583 394.634460,8.586906 392.660645,8.877151 
	C392.478912,8.859073 392.113678,8.864118 391.767883,8.659840 
	C387.936646,8.622257 384.451233,8.788952 380.606445,8.931279 
	C379.527130,8.888607 378.807098,8.870302 377.759155,8.651987 
	C373.940613,8.621264 370.450043,8.790552 366.568115,8.939797 
	C365.132263,8.932725 364.087769,8.945695 362.639984,8.932989 
	C357.450745,8.900925 352.664764,8.894535 347.571411,8.890253 
	C346.855042,8.917612 346.446075,8.942863 345.585663,8.947998 
	C336.068481,8.939298 327.002747,8.950716 317.621735,8.941484 
	C316.885468,8.930426 316.464508,8.940017 315.635651,8.933496 
	C314.140961,8.936689 313.054169,8.955996 311.601135,8.956678 
	C310.501831,8.950275 309.768768,8.962498 308.638733,8.884563 
	C305.480927,8.549276 302.720154,8.304145 299.567200,8.036230 
	C298.128357,8.033673 297.081665,8.053897 295.628418,8.040222 
	C294.135132,8.021832 293.048370,8.037341 291.498199,8.025808 
	C284.036682,8.015658 277.038605,8.032549 269.618286,8.028043 
	C267.790344,8.064637 266.384644,8.122629 264.614258,8.130175 
	C263.514130,8.069796 262.778687,8.059864 261.659088,8.051906 
	C260.511017,8.131096 259.747101,8.208313 258.535980,8.245424 
	C255.396622,8.230163 252.704453,8.255008 249.593292,8.228668 
	C247.768311,8.129835 246.362335,8.082187 244.496796,8.010214 
	C240.036438,8.005492 236.035645,8.025094 231.651886,8.016591 
	C230.501617,8.002726 229.734329,8.016965 228.500916,8.007364 
	C215.361557,8.083520 202.688278,8.183517 189.560638,8.230688 
	C186.056702,8.132413 183.007172,8.086964 179.535248,8.017344 
	C177.420959,8.016624 175.729050,8.040074 173.653122,8.032711 
	C172.499374,8.018110 171.729645,8.034322 170.511383,8.025578 
	C166.067795,8.294894 162.072723,8.589167 157.808411,8.697638 
	C156.688431,8.434714 155.837723,8.357591 154.562515,8.240616 
	C152.432846,8.199393 150.727646,8.198022 148.607346,8.153520 
	C142.772385,8.376553 137.352524,8.642717 131.582489,8.904185 
	C130.531906,8.894432 129.831497,8.889376 128.808655,8.684366 
	C125.994415,7.976785 123.369072,7.134915 122.378906,10.801983 
	C121.933693,10.721457 121.682343,10.754051 121.299179,10.542286 
	C120.706039,9.739826 120.253136,9.246593 119.936478,8.401835 
	C122.682091,7.382083 125.261383,6.330837 127.906898,6.123175 
	C133.922714,5.650959 139.971039,5.593164 146.006165,5.366933 
	C146.449677,5.369187 146.893204,5.371441 147.981323,5.573233 
	C151.088104,5.627009 153.550247,5.481249 156.012405,5.335489 
	C156.453842,5.346838 156.895264,5.358185 158.010437,5.580379 
	C162.459930,5.648201 166.235687,5.505177 170.011429,5.362153 
z"/>
<path fill="#594070" opacity="1.000000" stroke="none" 
	d="
M145.714722,5.065400 
	C139.971039,5.593164 133.922714,5.650959 127.906898,6.123175 
	C125.261383,6.330837 122.682091,7.382083 119.541229,8.426830 
	C113.415627,10.519825 107.830154,12.265010 102.225792,13.947299 
	C86.501808,18.667246 70.770035,23.361250 54.742554,28.046135 
	C53.959522,28.344814 53.475277,28.662851 52.673759,29.022202 
	C51.535526,29.292795 50.714565,29.522078 49.537663,29.709446 
	C48.120667,30.110550 47.059608,30.553566 45.683521,31.038542 
	C44.562313,31.336134 43.756134,31.591763 42.557510,31.806211 
	C39.075268,32.716187 35.985477,33.667343 32.657616,34.645405 
	C32.419548,34.672310 31.980066,34.863724 31.647877,34.904457 
	C30.689917,35.539188 30.064146,36.133190 29.092026,36.748859 
	C26.541134,38.086170 24.336592,39.401814 22.124430,40.376083 
	C22.129789,39.581150 22.142767,39.127590 22.155746,38.674030 
	C28.046509,32.328838 36.322639,30.969213 43.983837,28.545246 
	C60.591423,23.290682 77.322296,18.425480 94.006287,13.412827 
	C103.514877,10.556000 112.883232,6.919701 122.590752,5.139492 
	C129.976196,3.785118 137.796478,4.801997 145.714722,5.065400 
z"/>
<path fill="#CD92D1" opacity="1.000000" stroke="none" 
	d="
M512.727722,89.114197 
	C507.696503,91.977638 502.665253,94.841080 497.319855,97.243271 
	C498.743744,95.176476 500.220062,92.982620 502.267242,92.071907 
	C509.392029,88.902290 513.063049,83.758896 513.059204,75.906090 
	C513.050476,57.934391 513.031494,39.962696 513.021118,21.584927 
	C513.042419,20.095369 513.059448,19.011885 513.440430,17.895018 
	C514.043884,17.816942 514.283386,17.772253 514.756775,18.039387 
	C515.732544,20.036760 516.474426,21.722309 517.216309,23.407860 
	C517.244690,33.876259 517.273071,44.344658 517.059021,55.289661 
	C516.981323,57.178043 517.146057,58.589817 517.310791,60.001591 
	C517.293762,61.071789 517.276672,62.141991 517.011169,63.849922 
	C516.946045,66.320496 517.129395,68.153328 517.312744,69.986160 
	C517.287903,73.238586 517.263062,76.491013 516.935486,80.309540 
	C516.553467,81.710381 516.474243,82.545113 516.395020,83.379852 
	C516.249084,83.832695 516.103149,84.285545 515.860046,85.080460 
	C515.233582,85.838196 514.704346,86.253868 513.826599,87.015213 
	C513.227966,87.945328 512.977844,88.529762 512.727722,89.114197 
z"/>
<path fill="#594070" opacity="1.000000" stroke="none" 
	d="
M517.456055,23.187143 
	C516.474426,21.722309 515.732544,20.036760 514.675903,17.722795 
	C513.998291,16.546188 513.635559,15.997997 513.217957,15.115814 
	C510.238007,12.751262 507.312866,10.720700 504.387756,8.690138 
	C503.580383,7.825454 502.773010,6.960772 501.817047,5.832664 
	C506.828003,5.295061 514.696655,11.070544 516.540283,16.705271 
	C517.194336,18.704346 517.325745,20.874418 517.456055,23.187143 
z"/>
<path fill="#594070" opacity="1.000000" stroke="none" 
	d="
M333.731537,5.030258 
	C327.576752,5.485540 321.138245,5.630910 314.349945,5.556303 
	C320.482697,5.131000 326.965271,4.925672 333.731537,5.030258 
z"/>
<path fill="#00006A" opacity="1.000000" stroke="none" 
	d="
M278.500763,127.672714 
	C284.936859,127.379875 291.833405,127.074951 298.733337,126.927925 
	C303.523682,126.825859 308.318634,126.941032 313.583130,127.003716 
	C311.827423,127.386307 309.600281,128.011124 307.372772,128.012512 
	C297.902802,128.018341 288.432709,127.839455 278.500763,127.672714 
z"/>
<path fill="#594070" opacity="1.000000" stroke="none" 
	d="
M493.704834,5.111684 
	C488.237427,5.536068 482.469696,5.669804 476.349976,5.587113 
	C481.800110,5.187470 487.602325,5.004253 493.704834,5.111684 
z"/>
<path fill="#594070" opacity="1.000000" stroke="none" 
	d="
M169.715332,5.076097 
	C166.235687,5.505177 162.459930,5.648201 158.341660,5.576903 
	C161.805832,5.171734 165.612518,4.980887 169.715332,5.076097 
z"/>
<path fill="#594070" opacity="1.000000" stroke="none" 
	d="
M155.766388,5.022442 
	C153.550247,5.481249 151.088104,5.627009 148.313751,5.560512 
	C150.507828,5.135300 153.014099,4.922347 155.766388,5.022442 
z"/>
<path fill="#513B6A" opacity="1.000000" stroke="none" 
	d="
M517.709961,69.858330 
	C517.129395,68.153328 516.946045,66.320496 517.040344,64.250458 
	C517.580994,65.919006 517.844116,67.824753 517.709961,69.858330 
z"/>
<path fill="#513B6A" opacity="1.000000" stroke="none" 
	d="
M517.698364,59.893589 
	C517.146057,58.589817 516.981323,57.178043 517.092590,55.683784 
	C517.607727,56.996067 517.846863,58.390827 517.698364,59.893589 
z"/>
<path fill="#594070" opacity="1.000000" stroke="none" 
	d="
M392.760681,5.238521 
	C391.911224,5.512010 390.639862,5.641500 389.098816,5.576770 
	C389.999023,5.286540 391.168915,5.190530 392.760681,5.238521 
z"/>
<path fill="#513B6A" opacity="1.000000" stroke="none" 
	d="
M516.748535,83.324371 
	C516.474243,82.545113 516.553467,81.710381 516.941895,80.742332 
	C517.201416,81.495644 517.151733,82.382263 516.748535,83.324371 
z"/>
<path fill="#513B6A" opacity="1.000000" stroke="none" 
	d="
M21.927345,38.715546 
	C22.142767,39.127590 22.129789,39.581150 21.821022,40.594650 
	C21.287710,41.231010 21.050188,41.307430 20.868259,40.888538 
	C20.964481,40.063435 21.005112,39.733646 21.045742,39.403854 
	C21.196651,39.120743 21.414387,38.905148 21.927345,38.715546 
z"/>
<path fill="#594070" opacity="1.000000" stroke="none" 
	d="
M20.815540,39.437733 
	C21.005112,39.733646 20.964481,40.063435 20.834829,40.884029 
	C20.745808,41.374836 20.791483,41.439812 20.791483,41.439812 
	C20.693485,41.248043 20.595486,41.056271 20.347176,40.579170 
	C20.199255,39.959663 20.328747,39.685585 20.815540,39.437733 
z"/>
<path fill="#E88BDE" opacity="1.000000" stroke="none" 
	d="
M513.016724,21.990999 
	C513.031494,39.962696 513.050476,57.934391 513.059204,75.906090 
	C513.063049,83.758896 509.392029,88.902290 502.267242,92.071907 
	C500.220062,92.982620 498.743744,95.176476 496.967773,97.109657 
	C496.496490,97.473732 496.063049,97.510170 495.328308,97.373840 
	C495.026978,97.201073 495.009735,96.921516 494.842163,96.611145 
	C493.317596,95.965637 491.791321,95.052002 490.631683,95.391342 
	C484.188660,97.276833 477.842255,99.490364 471.448151,101.546074 
	C463.646881,104.054199 455.831177,106.517204 447.613220,109.008118 
	C442.775787,110.332298 438.350006,111.658653 433.917358,112.961800 
	C421.947723,116.480743 410.592773,121.285355 397.452667,121.240242 
	C281.051575,120.840561 164.648529,121.006805 48.246071,121.008362 
	C46.747639,121.008377 45.108967,120.677971 43.800339,121.184860 
	C42.935360,121.519905 42.544285,123.078407 41.941032,124.089149 
	C39.832413,124.251297 37.723789,124.413445 35.230518,124.061012 
	C33.795742,122.679253 32.638222,121.912720 31.714453,120.927109 
	C28.096426,117.066841 22.481966,113.627693 21.416840,109.130325 
	C19.280577,100.110229 19.124838,90.498039 19.122265,81.129974 
	C19.119646,71.595299 20.689547,62.064804 20.795368,52.523880 
	C20.866039,46.152100 23.922567,42.343170 28.787655,39.222565 
	C29.846859,38.543159 30.798971,37.696785 31.845520,36.913567 
	C31.890636,36.899826 31.977619,36.863338 32.171833,36.771950 
	C32.611050,36.528172 32.826221,36.341415 33.391266,36.045654 
	C36.175991,35.314098 38.581009,34.657177 41.337074,34.021164 
	C43.768330,34.222363 46.275814,35.571758 47.340065,32.057144 
	C48.091213,32.014954 48.521339,32.009411 49.386421,32.003819 
	C54.744911,30.717556 59.695908,29.527153 64.586342,28.125446 
	C75.217796,25.078234 85.840622,21.996704 96.424431,18.788839 
	C104.795654,16.251595 113.103447,13.505089 121.439407,10.851511 
	C121.682343,10.754051 121.933693,10.721457 122.792747,10.812153 
	C125.305061,10.208489 127.218079,9.546404 129.131104,8.884319 
	C129.831497,8.889376 130.531906,8.894432 131.760376,9.246129 
	C137.384445,9.936078 142.478333,10.343034 147.580109,10.513278 
	C148.034622,10.528445 148.540466,9.005334 149.022461,8.196651 
	C150.727646,8.198022 152.432846,8.199393 154.605774,8.537735 
	C156.067352,11.476825 157.070267,10.952098 158.077667,8.883439 
	C162.072723,8.589167 166.067795,8.294894 170.557022,8.345798 
	C171.636093,9.257904 172.220993,9.824835 172.805893,10.391766 
	C173.216309,9.615685 173.626724,8.839605 174.037125,8.063525 
	C175.729050,8.040074 177.420959,8.016624 179.608475,8.393410 
	C183.450485,12.143017 187.543564,11.932340 190.015015,8.283513 
	C202.688278,8.183517 215.361557,8.083520 228.544006,8.329916 
	C229.638214,9.246686 230.223221,9.817064 230.808228,10.387439 
	C231.217102,9.606522 231.625977,8.825607 232.034851,8.044695 
	C236.035645,8.025094 240.036438,8.005492 244.556427,8.360541 
	C247.041809,12.059453 248.674606,11.769359 250.012299,8.279853 
	C252.704453,8.255008 255.396622,8.230163 258.582550,8.545128 
	C259.604248,9.409303 260.132202,9.933668 260.660126,10.458035 
	C261.121155,9.655335 261.582214,8.852635 262.043243,8.049933 
	C262.778687,8.059864 263.514130,8.069796 264.674011,8.467926 
	C267.337677,12.213382 268.924042,11.570799 270.040497,8.049440 
	C277.038605,8.032549 284.036682,8.015658 291.551788,8.364771 
	C292.823181,9.376953 293.577576,10.023130 294.331970,10.669310 
	C294.899658,9.804249 295.467316,8.939187 296.034973,8.074122 
	C297.081665,8.053897 298.128357,8.033673 299.638245,8.406611 
	C303.010895,12.363492 305.998077,11.956380 309.035706,8.974719 
	C309.768768,8.962498 310.501831,8.950275 311.731567,9.253735 
	C313.499969,9.362814 314.771759,9.156212 316.043518,8.949609 
	C316.464508,8.940017 316.885468,8.930426 317.951233,9.155720 
	C326.688293,9.911738 334.777344,10.509945 342.877106,10.857480 
	C343.901520,10.901435 344.982391,9.630087 346.037109,8.968121 
	C346.446075,8.942863 346.855042,8.917612 347.895142,9.119853 
	C353.401398,10.567014 358.313812,13.180672 363.043243,8.958665 
	C364.087769,8.945695 365.132263,8.932725 366.750000,9.280957 
	C371.062012,11.433526 374.747986,12.505338 378.087097,8.851997 
	C378.807098,8.870302 379.527130,8.888607 380.756012,9.249718 
	C384.881165,9.349723 388.497406,9.106920 392.113678,8.864119 
	C392.113678,8.864118 392.478912,8.859073 392.942017,9.115655 
	C395.825867,11.209726 398.059906,12.267308 399.025391,8.026588 
	C399.763153,8.021206 400.500885,8.015822 401.678925,8.413864 
	C405.687164,12.382039 413.836761,11.921418 416.036713,8.030659 
	C436.700928,8.007335 457.365112,7.984011 478.535706,8.305124 
	C480.188660,12.377057 481.719727,9.893222 483.158234,8.904369 
	C485.443665,8.894445 487.729126,8.884521 490.756470,9.117176 
	C495.685425,9.900321 499.872467,10.440885 504.340454,11.077807 
	C505.092468,11.770381 505.563568,12.366596 506.093536,13.285786 
	C507.179443,17.435562 508.020691,21.414484 513.016724,21.990999 
M217.011856,51.988400 
	C217.011856,51.988400 217.033630,51.949940 216.832504,51.405712 
	C215.875916,51.578331 214.919342,51.750950 213.955078,51.952648 
	C213.955078,51.952648 213.925674,51.958961 213.325241,52.085812 
	C212.564255,52.393673 211.803268,52.701534 210.364487,53.076302 
	C209.157684,55.450256 207.950897,57.824215 206.037384,59.999832 
	C204.359604,59.662224 202.681839,59.324619 200.765488,58.396824 
	C197.293671,57.387394 193.570038,54.642597 190.320007,59.933464 
	C189.645660,60.056946 188.971329,60.180428 187.794403,59.847370 
	C187.198639,59.574158 186.602875,59.300945 185.861908,58.344788 
	C184.882019,54.969246 183.373657,54.872055 180.486023,56.781063 
	C178.777374,57.910648 175.982666,58.264954 173.928650,57.815315 
	C170.207047,57.000622 166.674042,55.324337 162.992538,53.509903 
	C162.981628,53.342823 162.970703,53.175739 163.167999,52.385784 
	C162.094193,51.593678 161.077026,50.230904 159.935837,50.117645 
	C156.656921,49.792210 153.327850,49.972183 149.942093,49.227272 
	C148.894135,48.230499 147.929703,46.591690 146.771683,46.441025 
	C145.852951,46.321495 144.208527,47.827053 143.750290,48.960373 
	C142.852646,51.180508 142.557571,53.644268 142.005524,56.935432 
	C142.005936,63.969448 142.006348,71.003464 142.060226,78.643585 
	C143.090515,79.061386 144.120789,79.479187 145.662964,80.262321 
	C146.453461,80.528709 147.243942,80.795090 148.147476,81.823158 
	C151.182419,84.878471 159.472778,84.975266 163.516235,81.688766 
	C164.340164,81.129951 165.164093,80.571136 166.293350,80.348465 
	C166.505188,80.564583 166.734528,80.760155 167.663330,80.923317 
	C168.117599,80.940849 168.571854,80.958389 169.051941,81.524261 
	C169.349304,82.046059 169.646652,82.567856 169.944016,83.089653 
	C170.132919,82.979034 170.321838,82.868416 170.510757,82.757797 
	C170.319000,82.143265 170.127228,81.528740 170.315155,80.847168 
	C170.315155,80.847168 170.700714,80.845810 171.457687,80.846298 
	C172.279022,79.840828 173.100342,78.835365 174.333237,77.431000 
	C174.873917,77.270782 175.414581,77.110558 176.270737,77.580200 
	C177.799316,79.257820 179.038712,81.751221 180.924957,82.419914 
	C183.684296,83.398117 184.298645,85.057213 185.510132,87.357803 
	C186.636368,89.496513 189.949478,90.742271 192.553955,91.659294 
	C193.193054,91.884315 194.823166,89.294701 196.635086,87.708626 
	C201.716660,84.776932 206.798233,81.845238 212.226562,79.372238 
	C213.132919,79.648453 214.039276,79.924667 215.502350,79.958817 
	C216.028763,79.656929 216.555176,79.355042 217.711212,79.040550 
	C218.132080,79.022026 218.552933,79.003502 219.618210,79.278084 
	C220.372177,79.625160 221.203568,79.863342 221.868271,80.335960 
	C229.393127,85.686073 234.171127,85.363754 241.497360,78.985001 
	C241.666672,78.984131 241.835983,78.983269 242.478394,79.382759 
	C243.053574,79.615227 243.628738,79.847702 244.816620,80.397270 
	C246.394669,80.519089 247.972717,80.640900 250.385391,80.838867 
	C257.707672,78.013611 262.635468,81.876457 266.559479,86.515076 
	C268.618591,85.538597 270.195526,84.316658 271.909302,84.078217 
	C275.317963,83.603981 277.057617,82.072243 276.859436,78.036995 
	C276.910248,77.685997 276.961060,77.334999 277.509155,76.981979 
	C277.509155,76.981979 278.006683,76.978638 278.610107,76.748688 
	C279.063904,75.835098 279.517700,74.921509 279.978668,73.337967 
	C279.982025,72.891281 279.985352,72.444588 280.575928,71.762993 
	C282.342834,67.286911 279.136719,59.017956 274.930084,57.870087 
	C273.805298,57.563164 272.316132,58.591362 270.183563,59.004036 
	C269.105957,58.928635 268.028320,58.853230 266.724792,58.211529 
	C262.767883,54.083176 260.568115,58.196220 257.162354,59.752331 
	C252.807632,60.182907 248.452927,60.613483 243.350220,60.967468 
	C240.514694,60.373798 237.679184,59.780132 233.996552,59.133106 
	C232.015488,59.141380 230.034424,59.149654 227.819641,58.569397 
	C225.872803,58.364651 223.925964,58.159901 222.027969,57.960285 
	C221.035095,56.377964 219.978363,54.693871 218.533768,52.625668 
	C218.038895,52.405300 217.544022,52.184933 217.011856,51.988400 
M326.427612,80.723129 
	C326.965973,80.143280 327.504333,79.563438 328.716675,78.800201 
	C329.697388,76.820961 330.678131,74.841728 331.472260,73.239006 
	C333.364838,71.936180 335.160309,70.700195 337.626587,69.238464 
	C338.089386,69.152222 338.552216,69.065979 339.725433,68.884453 
	C340.395569,66.659821 341.065704,64.435188 341.980499,61.398369 
	C345.595886,59.895573 347.484253,60.913990 347.929962,65.939423 
	C348.119293,68.073753 347.648773,70.319801 348.135834,72.357903 
	C348.532501,74.017715 349.908936,75.443390 351.057007,77.612854 
	C352.327423,78.718979 353.597809,79.825104 355.658447,80.897324 
	C358.698792,79.325294 360.321259,73.520241 359.485077,68.963303 
	C359.114471,66.943626 359.774323,64.734871 359.966431,62.611946 
	C361.680023,63.255825 363.377045,63.949871 365.113678,64.523972 
	C366.090454,64.846870 367.132690,64.971741 368.145416,65.185822 
	C368.077271,64.400742 368.009125,63.615665 368.254272,62.364929 
	C368.811920,61.858540 369.369598,61.352150 370.115967,61.575584 
	C371.744568,65.382217 373.373169,69.188850 374.515839,73.480934 
	C371.880157,75.405525 371.314758,77.546432 373.688934,80.135368 
	C376.795288,83.522667 383.294922,85.066910 386.950684,83.209480 
	C394.020294,79.617508 395.587830,76.680168 394.039795,69.323715 
	C393.694061,67.882744 393.348358,66.441772 393.002014,64.208275 
	C392.667511,62.474541 392.332977,60.740807 391.858765,58.304096 
	C391.063354,56.013416 390.820496,52.249874 389.369843,51.705612 
	C384.846680,50.008629 379.945404,46.814110 374.368805,50.890385 
	C373.577484,50.588787 372.786133,50.287189 371.779602,49.439697 
	C369.082886,48.195652 366.404114,47.200481 363.062592,50.005173 
	C356.709045,50.341862 350.355499,50.678551 343.205505,51.008205 
	C342.143494,51.000263 341.081512,50.992321 339.647125,50.688725 
	C339.410522,50.476158 339.197998,50.241764 338.798676,49.437332 
	C337.863953,49.618671 336.929260,49.800014 335.078278,49.992241 
	C332.657501,49.994335 330.175140,49.674480 327.839447,50.121365 
	C326.476318,50.382175 325.347748,51.869114 323.681702,53.133476 
	C323.249451,53.453354 322.817230,53.773228 321.753113,53.863457 
	C319.910370,54.250019 318.067596,54.636581 315.866821,54.403530 
	C314.310333,53.977943 312.753845,53.552353 310.442078,53.158928 
	C308.913269,55.025738 307.384491,56.892548 306.149475,58.400631 
	C303.481232,56.805168 301.177979,55.427963 298.240326,53.775745 
	C296.252289,53.909317 294.264221,54.042892 291.681976,53.838409 
	C290.912476,54.221977 289.478088,54.594707 289.471649,54.990719 
	C289.340759,63.024555 289.373535,71.061058 289.373535,79.848602 
	C290.860809,78.799889 291.511963,78.340744 292.585175,78.371689 
	C294.401917,81.551704 296.570679,80.813766 299.571259,78.881462 
	C300.984161,77.724144 302.397064,76.566833 303.145050,75.954155 
	C306.490845,77.725037 309.448273,79.290352 313.023346,80.766769 
	C314.323608,80.158356 315.623871,79.549950 317.712250,79.122002 
	C319.566620,79.398689 321.420990,79.675377 323.704163,80.264336 
	C324.403839,80.437805 325.103516,80.611275 326.427612,80.723129 
z"/>
<path fill="#E59FE5" opacity="1.000000" stroke="none" 
	d="
M42.384964,124.268234 
	C42.544285,123.078407 42.935360,121.519905 43.800339,121.184860 
	C45.108967,120.677971 46.747639,121.008377 48.246071,121.008362 
	C164.648529,121.006805 281.051575,120.840561 397.452667,121.240242 
	C410.592773,121.285355 421.947723,116.480743 433.917358,112.961800 
	C438.350006,111.658653 442.775787,110.332298 447.657440,109.277580 
	C446.746185,110.737793 445.382172,111.936951 444.018188,113.136101 
	C443.236298,113.461655 442.454376,113.787209 441.101868,113.888504 
	C439.011688,114.367554 437.492065,115.070877 435.972473,115.774193 
	C430.091766,117.707779 424.211090,119.641365 417.595947,121.539131 
	C415.188660,122.170502 413.515808,122.837700 411.842926,123.504898 
	C408.718262,123.884094 405.593811,124.592995 402.468933,124.594650 
	C303.064606,124.647339 203.660248,124.641136 104.255890,124.618042 
	C83.780212,124.613289 63.304558,124.506874 42.384964,124.268234 
z"/>
<path fill="#C58BCB" opacity="1.000000" stroke="none" 
	d="
M31.800406,36.927315 
	C30.798971,37.696785 29.846859,38.543159 28.787655,39.222565 
	C23.922567,42.343170 20.866039,46.152100 20.795368,52.523880 
	C20.689547,62.064804 19.119646,71.595299 19.122265,81.129974 
	C19.124838,90.498039 19.280577,100.110229 21.416840,109.130325 
	C22.481966,113.627693 28.096426,117.066841 31.714453,120.927109 
	C32.638222,121.912720 33.795742,122.679253 34.860821,123.921432 
	C25.184320,124.140709 17.372297,117.373283 17.072052,107.265839 
	C16.525467,88.865486 16.648094,70.435829 16.981689,52.027287 
	C17.043076,48.639908 19.424583,45.294571 20.763332,41.684822 
	C20.791483,41.439812 20.745808,41.374836 20.779236,41.379345 
	C21.050188,41.307430 21.287710,41.231010 21.828640,40.936028 
	C24.336592,39.401814 26.541134,38.086170 29.486395,36.799149 
	C30.751545,36.860954 31.275974,36.894135 31.800406,36.927315 
z"/>
<path fill="#D494D7" opacity="1.000000" stroke="none" 
	d="
M444.415649,113.158432 
	C445.382172,111.936951 446.746185,110.737793 448.065918,109.269180 
	C455.831177,106.517204 463.646881,104.054199 471.448151,101.546074 
	C477.842255,99.490364 484.188660,97.276833 490.631683,95.391342 
	C491.791321,95.052002 493.317596,95.965637 494.461823,96.638412 
	C492.163940,97.849693 490.078857,98.723320 487.993774,99.596954 
	C473.600220,104.124893 459.206635,108.652824 444.415649,113.158432 
z"/>
<path fill="#CD92D1" opacity="1.000000" stroke="none" 
	d="
M488.387207,99.653946 
	C490.078857,98.723320 492.163940,97.849693 494.629395,96.948792 
	C495.009735,96.921516 495.026978,97.201073 495.003601,97.338943 
	C492.913666,98.221527 490.847168,98.966240 488.387207,99.653946 
z"/>
<path fill="#D494D7" opacity="1.000000" stroke="none" 
	d="
M436.315674,115.807693 
	C437.492065,115.070877 439.011688,114.367554 440.777985,113.863716 
	C439.569397,114.655861 438.114136,115.248535 436.315674,115.807693 
z"/>
<path fill="#B57DBC" opacity="1.000000" stroke="none" 
	d="
M412.188965,123.581848 
	C413.515808,122.837700 415.188660,122.170502 417.219543,121.621368 
	C415.896698,122.379227 414.215820,123.019012 412.188965,123.581848 
z"/>
<path fill="#594070" opacity="1.000000" stroke="none" 
	d="
M512.920288,88.971558 
	C512.977844,88.529762 513.227966,87.945328 513.741455,87.271713 
	C513.707520,87.731323 513.410217,88.280121 512.920288,88.971558 
z"/>
<path fill="#E59EE5" opacity="1.000000" stroke="none" 
	d="
M121.299179,10.542285 
	C113.103447,13.505089 104.795654,16.251595 96.424431,18.788839 
	C85.840622,21.996704 75.217796,25.078234 64.586342,28.125446 
	C59.695908,29.527153 54.744911,30.717556 49.510841,31.724388 
	C49.431408,30.880457 49.662506,30.315910 49.893604,29.751362 
	C50.714565,29.522078 51.535526,29.292795 52.861877,29.175926 
	C53.925285,28.880720 54.483311,28.473103 55.041336,28.065487 
	C70.770035,23.361250 86.501808,18.667246 102.225792,13.947299 
	C107.830154,12.265010 113.415627,10.519825 119.404976,8.778355 
	C120.253136,9.246593 120.706039,9.739826 121.299179,10.542285 
z"/>
<path fill="#E597E1" opacity="1.000000" stroke="none" 
	d="
M345.585663,8.948002 
	C344.982391,9.630087 343.901520,10.901435 342.877106,10.857480 
	C334.777344,10.509945 326.688293,9.911738 318.266479,9.176371 
	C327.002747,8.950716 336.068481,8.939298 345.585663,8.948002 
z"/>
<path fill="#E597E1" opacity="1.000000" stroke="none" 
	d="
M415.568909,8.002297 
	C413.836761,11.921418 405.687164,12.382039 402.047180,8.438640 
	C406.350464,8.031306 410.725769,8.002622 415.568909,8.002297 
z"/>
<path fill="#E597E1" opacity="1.000000" stroke="none" 
	d="
M148.607346,8.153521 
	C148.540466,9.005334 148.034622,10.528445 147.580109,10.513278 
	C142.478333,10.343034 137.384445,9.936078 132.110565,9.250826 
	C137.352524,8.642717 142.772385,8.376553 148.607346,8.153521 
z"/>
<path fill="#CD92D1" opacity="1.000000" stroke="none" 
	d="
M506.034637,12.962802 
	C505.563568,12.366596 505.092468,11.770381 504.146912,10.864217 
	C503.120422,10.022906 502.568390,9.491546 502.016388,8.960187 
	C502.544861,8.915003 503.073334,8.869818 503.994781,8.757385 
	C507.312866,10.720700 510.238007,12.751262 513.136353,15.508214 
	C513.065308,16.496763 513.020996,16.758919 512.605835,16.996914 
	C510.168213,15.636103 508.101440,14.299448 506.034637,12.962802 
z"/>
<path fill="#E597E1" opacity="1.000000" stroke="none" 
	d="
M362.639984,8.932989 
	C358.313812,13.180672 353.401398,10.567014 348.202515,9.117745 
	C352.664764,8.894535 357.450745,8.900925 362.639984,8.932989 
z"/>
<path fill="#E597E1" opacity="1.000000" stroke="none" 
	d="
M189.560638,8.230688 
	C187.543564,11.932340 183.450485,12.143017 180.030853,8.417579 
	C183.007172,8.086964 186.056702,8.132413 189.560638,8.230688 
z"/>
<path fill="#E597E1" opacity="1.000000" stroke="none" 
	d="
M501.617249,8.885008 
	C502.568390,9.491546 503.120422,10.022906 503.865967,10.767858 
	C499.872467,10.440885 495.685425,9.900321 491.184906,9.116514 
	C494.320343,8.852124 497.769226,8.830977 501.617249,8.885008 
z"/>
<path fill="#E597E1" opacity="1.000000" stroke="none" 
	d="
M377.759155,8.651987 
	C374.747986,12.505338 371.062012,11.433526 367.141327,9.301001 
	C370.450043,8.790552 373.940613,8.621264 377.759155,8.651987 
z"/>
<path fill="#E597E1" opacity="1.000000" stroke="none" 
	d="
M391.767883,8.659841 
	C388.497406,9.106920 384.881165,9.349723 381.115356,9.274086 
	C384.451233,8.788952 387.936646,8.622257 391.767883,8.659841 
z"/>
<path fill="#E597E1" opacity="1.000000" stroke="none" 
	d="
M308.638733,8.884563 
	C305.998077,11.956380 303.010895,12.363492 300.030396,8.429394 
	C302.720154,8.304145 305.480927,8.549276 308.638733,8.884563 
z"/>
<path fill="#E597E1" opacity="1.000000" stroke="none" 
	d="
M398.621979,7.998424 
	C398.059906,12.267308 395.825867,11.209726 393.123749,9.133734 
	C394.634460,8.586906 396.426514,8.278583 398.621979,7.998424 
z"/>
<path fill="#E59EE5" opacity="1.000000" stroke="none" 
	d="
M128.808655,8.684366 
	C127.218079,9.546404 125.305061,10.208489 122.978195,10.860405 
	C123.369072,7.134915 125.994415,7.976785 128.808655,8.684366 
z"/>
<path fill="#E597E1" opacity="1.000000" stroke="none" 
	d="
M249.593292,8.228668 
	C248.674606,11.769359 247.041809,12.059453 245.015991,8.384867 
	C246.362335,8.082187 247.768311,8.129835 249.593292,8.228668 
z"/>
<path fill="#E597E1" opacity="1.000000" stroke="none" 
	d="
M269.618286,8.028043 
	C268.924042,11.570799 267.337677,12.213382 265.038696,8.518373 
	C266.384644,8.122629 267.790344,8.064637 269.618286,8.028043 
z"/>
<path fill="#E597E1" opacity="1.000000" stroke="none" 
	d="
M295.628418,8.040224 
	C295.467316,8.939187 294.899658,9.804249 294.331970,10.669310 
	C293.577576,10.023130 292.823181,9.376953 292.015198,8.391812 
	C293.048370,8.037341 294.135132,8.021832 295.628418,8.040224 
z"/>
<path fill="#E597E1" opacity="1.000000" stroke="none" 
	d="
M482.852936,8.702559 
	C481.719727,9.893222 480.188660,12.377057 479.001526,8.326530 
	C480.156525,8.169248 481.352081,8.334998 482.852936,8.702559 
z"/>
<path fill="#E597E1" opacity="1.000000" stroke="none" 
	d="
M261.659088,8.051907 
	C261.582214,8.852635 261.121155,9.655335 260.660126,10.458035 
	C260.132202,9.933668 259.604248,9.409303 259.029755,8.585235 
	C259.747101,8.208313 260.511017,8.131096 261.659088,8.051907 
z"/>
<path fill="#E597E1" opacity="1.000000" stroke="none" 
	d="
M231.651886,8.016588 
	C231.625977,8.825607 231.217102,9.606522 230.808228,10.387439 
	C230.223221,9.817064 229.638214,9.246686 229.010101,8.353757 
	C229.734329,8.016965 230.501617,8.002726 231.651886,8.016588 
z"/>
<path fill="#E597E1" opacity="1.000000" stroke="none" 
	d="
M173.653122,8.032713 
	C173.626724,8.839605 173.216309,9.615685 172.805893,10.391766 
	C172.220993,9.824835 171.636093,9.257904 171.005554,8.370754 
	C171.729645,8.034322 172.499374,8.018110 173.653122,8.032713 
z"/>
<path fill="#E597E1" opacity="1.000000" stroke="none" 
	d="
M157.808411,8.697638 
	C157.070267,10.952098 156.067352,11.476825 155.030273,8.577585 
	C155.837723,8.357591 156.688431,8.434714 157.808411,8.697638 
z"/>
<path fill="#E597E1" opacity="1.000000" stroke="none" 
	d="
M315.635651,8.933496 
	C314.771759,9.156212 313.499969,9.362814 312.097778,9.272360 
	C313.054169,8.955996 314.140961,8.936689 315.635651,8.933496 
z"/>
<path fill="#B785C0" opacity="1.000000" stroke="none" 
	d="
M40.986027,34.000256 
	C38.581009,34.657177 36.175991,35.314098 33.359535,35.669983 
	C32.930630,35.118793 32.913158,34.868649 32.895687,34.618500 
	C35.985477,33.667343 39.075268,32.716187 42.395905,32.050697 
	C42.079845,32.890995 41.532936,33.445625 40.986027,34.000256 
z"/>
<path fill="#E59EE5" opacity="1.000000" stroke="none" 
	d="
M41.337074,34.021164 
	C41.532936,33.445625 42.079845,32.890995 42.788357,32.091881 
	C43.756134,31.591763 44.562313,31.336134 45.811440,31.256149 
	C46.509270,31.652462 46.764153,31.873125 47.019039,32.093788 
	C46.275814,35.571758 43.768330,34.222363 41.337074,34.021164 
z"/>
<path fill="#B785C0" opacity="1.000000" stroke="none" 
	d="
M47.340065,32.057144 
	C46.764153,31.873125 46.509270,31.652462 46.126472,31.214188 
	C47.059608,30.553566 48.120667,30.110550 49.537663,29.709448 
	C49.662506,30.315910 49.431408,30.880457 49.075890,31.724434 
	C48.521339,32.009411 48.091213,32.014954 47.340065,32.057144 
z"/>
<path fill="#B785C0" opacity="1.000000" stroke="none" 
	d="
M31.845520,36.913570 
	C31.275974,36.894135 30.751545,36.860954 29.832745,36.777481 
	C30.064146,36.133190 30.689917,35.539188 31.649555,35.238579 
	C31.981487,35.975758 31.979553,36.419548 31.977619,36.863338 
	C31.977619,36.863338 31.890636,36.899826 31.845520,36.913570 
z"/>
<path fill="#B785C0" opacity="1.000000" stroke="none" 
	d="
M54.742554,28.046133 
	C54.483311,28.473103 53.925285,28.880720 53.179146,29.134613 
	C53.475277,28.662851 53.959522,28.344814 54.742554,28.046133 
z"/>
<path fill="#C58BCB" opacity="1.000000" stroke="none" 
	d="
M32.171833,36.771950 
	C31.979553,36.419548 31.981487,35.975758 31.981743,35.197845 
	C31.980066,34.863724 32.419548,34.672310 32.657616,34.645405 
	C32.913158,34.868649 32.930630,35.118793 32.979828,35.744614 
	C32.826221,36.341415 32.611050,36.528172 32.171833,36.771950 
z"/>
<path fill="#DC93DC" opacity="1.000000" stroke="none" 
	d="
M506.093536,13.285776 
	C508.101440,14.299448 510.168213,15.636103 512.631226,17.223602 
	C513.027527,17.474449 513.076416,17.928402 513.076416,17.928402 
	C513.059448,19.011885 513.042419,20.095369 513.021118,21.584927 
	C508.020691,21.414484 507.179443,17.435562 506.093536,13.285776 
z"/>
<path fill="#BE8AC6" opacity="1.000000" stroke="none" 
	d="
M513.440430,17.895018 
	C513.076416,17.928402 513.027527,17.474449 513.002136,17.247761 
	C513.020996,16.758919 513.065308,16.496763 513.191162,15.842206 
	C513.635559,15.997997 513.998291,16.546188 514.442017,17.410973 
	C514.283386,17.772253 514.043884,17.816942 513.440430,17.895018 
z"/>
<path fill="#F9D0F7" opacity="1.000000" stroke="none" 
	d="
M298.842041,78.933861 
	C296.570679,80.813766 294.401917,81.551704 292.395630,77.671021 
	C292.229431,69.372391 292.252808,61.774429 292.276184,54.176464 
	C294.264221,54.042892 296.252289,53.909317 298.658325,54.246315 
	C302.556824,59.672737 306.037323,64.628593 309.517853,69.584442 
	C310.077698,69.336060 310.637512,69.087669 311.197357,68.839287 
	C311.197357,63.601780 311.197357,58.364273 311.197357,53.126770 
	C312.753845,53.552353 314.310333,53.977943 315.984558,55.177795 
	C316.376221,63.615227 316.650177,71.278389 316.924133,78.941544 
	C315.623871,79.549950 314.323608,80.158356 312.548187,80.498611 
	C308.862457,76.058540 305.693878,71.852875 302.398315,67.749191 
	C301.873383,67.095535 300.491425,66.357651 300.010223,66.612259 
	C299.170197,67.056725 298.199982,68.244125 298.203094,69.116890 
	C298.214783,72.389931 298.598053,75.661652 298.842041,78.933861 
z"/>
<path fill="#FACFF8" opacity="1.000000" stroke="none" 
	d="
M201.004059,58.987011 
	C202.681839,59.324619 204.359604,59.662224 206.426270,60.455738 
	C207.223373,62.271923 207.631577,63.632202 208.162781,65.371445 
	C210.059296,70.235077 209.354065,75.021835 205.928162,77.610794 
	C202.912003,79.890083 198.223495,79.956352 194.273529,80.999924 
	C193.991638,80.574287 193.709763,80.148659 193.427887,79.723030 
	C193.427887,81.141281 193.427887,82.559532 193.325104,84.352798 
	C192.347427,85.683388 191.472534,86.638969 190.597641,87.594559 
	C190.069687,86.487411 189.285751,85.428276 189.067245,84.263100 
	C188.615860,81.856155 188.465744,79.392708 188.186798,76.489716 
	C188.220230,70.785919 188.258606,65.544914 188.296982,60.303909 
	C188.971329,60.180428 189.645660,60.056946 191.081146,59.936707 
	C194.896210,59.622303 197.950134,59.304657 201.004059,58.987011 
M199.798874,64.441818 
	C198.569977,64.997192 197.341064,65.552574 195.395081,66.223991 
	C191.955048,67.842896 192.599258,70.728264 194.169998,72.804375 
	C195.325119,74.331123 198.534012,76.100555 199.602554,75.517326 
	C201.739822,74.350754 203.851974,71.856522 204.460129,69.516846 
	C205.118393,66.984329 203.195084,64.867363 199.798874,64.441818 
z"/>
<path fill="#FAD0F9" opacity="1.000000" stroke="none" 
	d="
M266.950714,58.777824 
	C268.028320,58.853230 269.105957,58.928635 270.855103,59.214714 
	C276.503265,61.687073 277.971527,65.889824 277.634125,71.022278 
	C276.885864,71.368217 276.403412,71.636414 275.520081,71.847946 
	C271.500031,71.623039 267.880859,71.454788 263.639709,71.257629 
	C265.315582,76.046432 267.948242,76.473145 271.112366,75.656128 
	C272.679108,75.251579 274.206360,74.694077 275.851685,74.494476 
	C276.305206,75.516777 276.658539,76.250381 277.011841,76.983994 
	C276.961060,77.334999 276.910248,77.685997 276.484192,78.414810 
	C265.546051,82.290718 260.426849,80.106537 257.844055,70.582817 
	C258.078278,64.134407 261.679688,60.793842 266.950714,58.777824 
M264.590271,66.522926 
	C267.134369,66.655205 269.678497,66.787491 272.222595,66.919769 
	C272.223145,66.359734 272.223694,65.799698 272.224243,65.239662 
	C269.555267,63.041824 266.898529,62.040749 264.590271,66.522926 
z"/>
<path fill="#F9D0F7" opacity="1.000000" stroke="none" 
	d="
M228.053360,59.157928 
	C230.034424,59.149654 232.015488,59.141380 234.643951,59.411865 
	C243.708542,66.249687 244.055496,70.484055 236.563446,79.116425 
	C229.599411,82.568672 227.603958,82.229225 223.084717,77.078362 
	C222.442291,76.346130 221.700211,75.701324 221.028473,74.564896 
	C220.429626,67.744507 220.911880,61.892662 228.053360,59.157928 
M234.643951,74.561653 
	C235.243332,72.889259 236.735703,70.868164 236.248352,69.620110 
	C235.350128,67.319748 233.289169,65.473396 231.712723,63.437870 
	C229.814163,64.944283 226.993027,66.113243 226.283020,68.054398 
	C225.606857,69.902954 226.487381,73.180382 227.905411,74.653015 
	C228.966034,75.754486 231.968872,74.985764 234.643951,74.561653 
z"/>
<path fill="#E495DC" opacity="1.000000" stroke="none" 
	d="
M163.062317,54.007744 
	C166.674042,55.324337 170.207047,57.000622 173.928650,57.815315 
	C175.982666,58.264954 178.777374,57.910648 180.486023,56.781063 
	C183.373657,54.872055 184.882019,54.969246 185.854797,58.954941 
	C185.311676,60.036148 184.775681,60.507206 183.844971,60.955925 
	C181.614029,61.924488 179.777786,62.915386 177.957855,63.913452 
	C177.974167,63.920612 177.935516,63.889809 177.659012,63.788895 
	C176.259720,63.785885 175.136948,63.883793 173.706146,63.831383 
	C172.132217,64.131348 170.866272,64.581627 169.287338,64.924728 
	C167.148865,64.794205 165.323395,64.770874 163.497925,64.747543 
	C164.624313,65.929718 165.990646,66.970245 166.799255,68.340019 
	C167.418015,69.388191 167.950455,71.267143 167.429321,72.044739 
	C166.370636,73.624390 164.573074,74.708832 162.788696,75.933075 
	C162.000244,75.557861 161.503159,75.246941 160.990921,74.543518 
	C160.633240,72.068382 160.290710,69.985733 160.068619,67.594330 
	C160.527740,61.856236 156.046158,65.006088 154.182190,63.506878 
	C155.945374,60.821129 161.007736,63.664444 161.126328,58.530678 
	C161.887405,56.833080 162.474854,55.420410 163.062317,54.007744 
z"/>
<path fill="#FACEF8" opacity="1.000000" stroke="none" 
	d="
M354.868225,80.931236 
	C353.597809,79.825104 352.327423,78.718979 351.003296,76.829620 
	C350.967407,71.409164 351.224548,66.753250 350.864594,62.145557 
	C350.749084,60.666561 349.159210,58.274342 347.975708,58.097820 
	C344.258575,57.543388 343.859039,55.373241 344.507843,52.414841 
	C351.266113,52.652779 357.610077,52.928356 363.912903,53.567463 
	C362.594482,55.223499 361.427338,57.460735 360.018341,57.625122 
	C356.313324,58.057392 355.949585,60.079430 355.867035,63.083950 
	C355.703430,69.037704 355.219635,74.982651 354.868225,80.931236 
z"/>
<path fill="#DE8FD6" opacity="1.000000" stroke="none" 
	d="
M257.790070,70.976624 
	C260.426849,80.106537 265.546051,82.290718 276.484192,78.680923 
	C277.057617,82.072243 275.317963,83.603981 271.909302,84.078217 
	C270.195526,84.316658 268.618591,85.538597 266.559479,86.515076 
	C262.635468,81.876457 257.707672,78.013611 250.035248,80.362976 
	C249.752502,76.965630 249.991058,74.035522 249.843872,71.124924 
	C249.660446,67.498215 250.865479,65.467133 255.017258,66.109818 
	C256.090820,67.923950 256.940460,69.450287 257.790070,70.976624 
z"/>
<path fill="#DD92D5" opacity="1.000000" stroke="none" 
	d="
M344.093506,52.452480 
	C343.859039,55.373241 344.258575,57.543388 347.975708,58.097820 
	C349.159210,58.274342 350.749084,60.666561 350.864594,62.145557 
	C351.224548,66.753250 350.967407,71.409164 350.900208,76.509636 
	C349.908936,75.443390 348.532501,74.017715 348.135834,72.357903 
	C347.648773,70.319801 348.119293,68.073753 347.929962,65.939423 
	C347.484253,60.913990 345.595886,59.895573 341.980499,61.398369 
	C341.065704,64.435188 340.395569,66.659821 339.379700,68.561005 
	C338.832855,66.345673 339.590149,63.591866 335.598053,64.800995 
	C334.145844,64.589317 333.037811,64.376259 331.947388,63.718285 
	C331.974640,61.502872 331.984314,59.732380 332.404541,57.926338 
	C334.907043,57.628307 336.999054,57.365818 339.386780,56.972527 
	C339.773285,55.491264 339.864075,54.140812 339.958710,52.489258 
	C339.981537,51.786900 340.000519,51.385639 340.019501,50.984375 
	C341.081512,50.992321 342.143494,51.000263 343.628418,51.370823 
	C344.065399,51.973122 344.079437,52.212799 344.093506,52.452480 
z"/>
<path fill="#F8CAF7" opacity="1.000000" stroke="none" 
	d="
M254.793304,65.822006 
	C250.865479,65.467133 249.660446,67.498215 249.843872,71.124924 
	C249.991058,74.035522 249.752502,76.965630 249.617935,80.324905 
	C247.972717,80.640900 246.394669,80.519089 244.647278,79.998871 
	C244.526825,79.060997 244.575714,78.521538 244.681274,77.521988 
	C244.524689,71.722626 244.311447,66.383347 244.098206,61.044064 
	C248.452927,60.613483 252.807632,60.182907 257.465576,60.246902 
	C256.776978,62.434986 255.785126,64.128494 254.793304,65.822006 
z"/>
<path fill="#D78DD1" opacity="1.000000" stroke="none" 
	d="
M317.318176,79.031776 
	C316.650177,71.278389 316.376221,63.615227 316.163574,55.487602 
	C318.067596,54.636581 319.910370,54.250019 322.037018,54.381706 
	C322.355377,56.519764 322.389801,58.139565 322.373230,60.054771 
	C322.514954,60.893356 322.707672,61.436531 322.888947,62.355659 
	C322.857025,63.483303 322.836517,64.234993 322.636292,65.342522 
	C322.596252,69.134163 322.735931,72.569977 322.879761,76.404022 
	C323.014404,77.852196 323.144897,78.902130 323.275391,79.952072 
	C321.420990,79.675377 319.566620,79.398689 317.318176,79.031776 
z"/>
<path fill="#E093D5" opacity="1.000000" stroke="none" 
	d="
M355.263336,80.914276 
	C355.219635,74.982651 355.703430,69.037704 355.867035,63.083950 
	C355.949585,60.079430 356.313324,58.057392 360.018341,57.625122 
	C361.427338,57.460735 362.594482,55.223499 363.927002,53.164482 
	C363.987701,51.598751 363.993225,50.799530 363.998779,50.000305 
	C366.404114,47.200481 369.082886,48.195652 371.705444,49.923038 
	C371.424835,50.916626 371.218384,51.426872 370.679749,51.834423 
	C369.008026,52.317802 366.851349,52.599026 366.495728,53.552185 
	C365.708771,55.661419 365.597076,58.118496 365.697357,60.412373 
	C365.733948,61.249550 367.152771,62.026279 367.940979,62.830589 
	C368.009125,63.615665 368.077271,64.400742 368.145416,65.185822 
	C367.132690,64.971741 366.090454,64.846870 365.113678,64.523972 
	C363.377045,63.949871 361.680023,63.255825 359.966431,62.611946 
	C359.774323,64.734871 359.114471,66.943626 359.485077,68.963303 
	C360.321259,73.520241 358.698792,79.325294 355.263336,80.914276 
z"/>
<path fill="#E48EDC" opacity="1.000000" stroke="none" 
	d="
M374.992798,51.011230 
	C379.945404,46.814110 384.846680,50.008629 389.369843,51.705612 
	C390.820496,52.249874 391.063354,56.013416 391.772339,58.899982 
	C391.110382,60.001850 390.534790,60.507832 389.615143,60.860126 
	C385.671844,60.210587 382.072601,59.714733 378.147034,59.059303 
	C376.878052,56.270233 375.935425,53.640732 374.992798,51.011230 
z"/>
<path fill="#DD8ED5" opacity="1.000000" stroke="none" 
	d="
M389.959229,61.013813 
	C390.534790,60.507832 391.110382,60.001850 391.842194,59.251472 
	C392.332977,60.740807 392.667511,62.474541 392.811615,64.869987 
	C393.080811,67.021164 393.540405,68.510620 394.000000,70.000076 
	C395.587830,76.680168 394.020294,79.617508 386.950684,83.209480 
	C383.294922,85.066910 376.795288,83.522667 373.688934,80.135368 
	C371.314758,77.546432 371.880157,75.405525 374.946991,73.399147 
	C375.618561,73.545784 375.830780,73.797928 375.884064,74.388596 
	C376.509247,76.436676 377.089447,79.529892 378.053253,79.654465 
	C381.258575,80.068726 385.137817,80.395203 387.771484,78.952812 
	C392.165131,76.546532 391.004578,72.301651 388.907013,68.072845 
	C388.954773,66.724197 388.976654,65.826920 389.198151,64.648720 
	C389.584930,63.249798 389.772064,62.131805 389.959229,61.013813 
z"/>
<path fill="#F9CEF7" opacity="1.000000" stroke="none" 
	d="
M170.700714,80.845810 
	C170.700714,80.845810 170.315155,80.847168 169.897720,80.887199 
	C169.480286,80.927231 169.026123,80.975922 169.026123,80.975922 
	C168.571854,80.958389 168.117599,80.940849 167.318039,80.552399 
	C168.811417,76.444733 170.650085,72.707977 172.737869,69.142807 
	C174.375885,71.963295 175.796387,74.502350 179.239929,71.190521 
	C181.945740,73.284004 184.357544,75.214668 186.756195,77.484390 
	C185.374100,81.768768 183.232956,81.195320 180.508789,79.093193 
	C179.211960,78.092484 177.486542,77.647217 175.955261,76.950340 
	C175.414581,77.110558 174.873917,77.270782 173.847229,77.790863 
	C172.474380,79.049088 171.587540,79.947449 170.700714,80.845810 
z"/>
<path fill="#DB8FD1" opacity="1.000000" stroke="none" 
	d="
M193.427887,83.977783 
	C193.427887,82.559532 193.427887,81.141281 193.427887,79.723030 
	C193.709763,80.148659 193.991638,80.574287 194.273529,80.999924 
	C198.223495,79.956352 202.912003,79.890083 205.928162,77.610794 
	C209.354065,75.021835 210.059296,70.235077 208.531616,65.375778 
	C209.515839,64.999954 210.254242,64.998764 211.005829,65.447769 
	C211.305954,70.236488 211.592880,74.575020 211.879807,78.913544 
	C206.798233,81.845238 201.716660,84.776932 196.183868,87.562073 
	C194.964386,86.269608 194.196136,85.123695 193.427887,83.977783 
z"/>
<path fill="#D798D0" opacity="1.000000" stroke="none" 
	d="
M227.936493,58.863663 
	C220.911880,61.892662 220.429626,67.744507 220.715088,74.567719 
	C219.959625,75.021988 219.541779,75.022285 218.781754,75.008003 
	C217.985077,74.982109 217.530563,74.970810 217.057343,74.493858 
	C217.072723,67.388748 217.106812,60.749287 217.392044,54.023006 
	C218.069336,53.627384 218.495483,53.318581 218.921631,53.009777 
	C219.978363,54.693871 221.035095,56.377964 222.027969,57.960285 
	C223.925964,58.159901 225.872803,58.364651 227.936493,58.863663 
z"/>
<path fill="#E495DC" opacity="1.000000" stroke="none" 
	d="
M193.325104,84.352798 
	C194.196136,85.123695 194.964386,86.269608 195.865143,87.707306 
	C194.823166,89.294701 193.193054,91.884315 192.553955,91.659294 
	C189.949478,90.742271 186.636368,89.496513 185.510132,87.357803 
	C184.298645,85.057213 183.684296,83.398117 180.924957,82.419914 
	C179.038712,81.751221 177.799316,79.257820 176.113007,77.265274 
	C177.486542,77.647217 179.211960,78.092484 180.508789,79.093193 
	C183.232956,81.195320 185.374100,81.768768 187.111938,77.429657 
	C187.717819,77.008064 187.954758,76.980278 188.191711,76.952499 
	C188.465744,79.392708 188.615860,81.856155 189.067245,84.263100 
	C189.285751,85.428276 190.069687,86.487411 190.597641,87.594559 
	C191.472534,86.638969 192.347427,85.683388 193.325104,84.352798 
z"/>
<path fill="#DB90D1" opacity="1.000000" stroke="none" 
	d="
M188.186783,76.489716 
	C187.954758,76.980278 187.717819,77.008064 187.125122,77.090591 
	C184.357544,75.214668 181.945740,73.284004 179.251694,70.826996 
	C179.368652,68.931007 179.767838,67.561363 180.428558,65.992905 
	C181.873291,64.188820 183.056488,62.583542 184.239670,60.978264 
	C184.775681,60.507206 185.311676,60.036148 185.927399,59.296410 
	C186.602875,59.300945 187.198639,59.574158 188.045685,60.075638 
	C188.258606,65.544914 188.220230,70.785919 188.186783,76.489716 
z"/>
<path fill="#DC91D4" opacity="1.000000" stroke="none" 
	d="
M299.206665,78.907661 
	C298.598053,75.661652 298.214783,72.389931 298.203094,69.116890 
	C298.199982,68.244125 299.170197,67.056725 300.010223,66.612259 
	C300.491425,66.357651 301.873383,67.095535 302.398315,67.749191 
	C305.693878,71.852875 308.862457,76.058540 312.239380,80.543060 
	C309.448273,79.290352 306.490845,77.725037 303.145050,75.954155 
	C302.397064,76.566833 300.984161,77.724144 299.206665,78.907661 
z"/>
<path fill="#DB8AD3" opacity="1.000000" stroke="none" 
	d="
M376.014801,74.073792 
	C375.830780,73.797928 375.618561,73.545784 375.189941,73.156418 
	C373.373169,69.188850 371.744568,65.382217 370.218628,60.910042 
	C370.551514,57.475376 370.781738,54.706249 371.011932,51.937119 
	C371.218384,51.426872 371.424835,50.916626 371.813049,50.195984 
	C372.786133,50.287189 373.577484,50.588787 374.680786,50.950806 
	C375.935425,53.640732 376.878052,56.270233 377.875610,59.290344 
	C374.301331,63.134415 372.754059,66.584351 377.696564,70.289543 
	C378.400299,70.817101 378.625763,71.982597 379.067932,73.156265 
	C379.067535,73.661957 379.071808,73.864227 379.066589,74.057365 
	C379.057068,74.048233 379.038818,74.066940 378.744110,74.062820 
	C378.252930,74.061943 378.056458,74.065178 377.552429,74.067154 
	C376.834808,74.068527 376.424805,74.071159 376.014801,74.073792 
z"/>
<path fill="#FED4FD" opacity="1.000000" stroke="none" 
	d="
M322.424225,59.759369 
	C322.389801,58.139565 322.355377,56.519764 322.352966,54.496529 
	C322.817230,53.773228 323.249451,53.453354 324.349548,53.018791 
	C329.658630,52.976437 334.299866,53.048759 338.951538,53.516548 
	C339.004944,54.975780 339.048004,56.039555 339.091034,57.103325 
	C336.999054,57.365818 334.907043,57.628307 332.010803,57.901463 
	C329.290802,58.915577 327.375122,59.919025 325.095856,60.712322 
	C323.962952,60.254570 323.193573,60.006969 322.424225,59.759369 
z"/>
<path fill="#D68ACE" opacity="1.000000" stroke="none" 
	d="
M142.006760,78.037476 
	C142.006348,71.003464 142.005936,63.969448 142.414276,56.466759 
	C143.633560,55.981693 144.444092,55.965298 145.360229,56.348877 
	C145.691055,64.164429 145.916275,71.580002 145.895477,79.016579 
	C145.649460,79.037582 145.160767,79.108788 144.832397,79.033661 
	C143.671600,78.651512 142.839188,78.344498 142.006760,78.037476 
z"/>
<path fill="#D691CF" opacity="1.000000" stroke="none" 
	d="
M243.724213,61.005768 
	C244.311447,66.383347 244.524689,71.722626 244.402832,77.553375 
	C243.380219,78.357361 242.692749,78.669884 242.005280,78.982407 
	C241.835983,78.983269 241.666672,78.984131 240.833344,78.990028 
	C239.069794,78.985641 237.970291,78.976227 236.870773,78.966812 
	C244.055496,70.484055 243.708542,66.249687 235.067505,59.438545 
	C237.679184,59.780132 240.514694,60.373798 243.724213,61.005768 
z"/>
<path fill="#D693CB" opacity="1.000000" stroke="none" 
	d="
M310.819702,53.142849 
	C311.197357,58.364273 311.197357,63.601780 311.197357,68.839287 
	C310.637512,69.087669 310.077698,69.336060 309.517853,69.584442 
	C306.037323,64.628593 302.556824,59.672737 298.975525,54.383820 
	C301.177979,55.427963 303.481232,56.805168 306.149475,58.400631 
	C307.384491,56.892548 308.913269,55.025738 310.819702,53.142849 
z"/>
<path fill="#FED4FD" opacity="1.000000" stroke="none" 
	d="
M217.140900,54.109825 
	C217.106812,60.749287 217.072723,67.388748 217.032196,74.902664 
	C217.044342,76.869133 217.062958,77.961143 217.081573,79.053154 
	C216.555176,79.355042 216.028763,79.656929 215.088806,79.671745 
	C214.425400,70.242767 214.175537,61.100864 213.925674,51.958961 
	C213.925674,51.958961 213.955078,51.952648 214.342651,51.956818 
	C215.498032,51.957302 216.265839,51.953621 217.033630,51.949936 
	C217.033630,51.949940 217.011856,51.988400 217.016602,52.334736 
	C217.061188,53.157322 217.101044,53.633575 217.140900,54.109825 
z"/>
<path fill="#DA8ED0" opacity="1.000000" stroke="none" 
	d="
M172.488770,68.971222 
	C170.650085,72.707977 168.811417,76.444733 166.977081,80.558334 
	C166.734528,80.760155 166.505188,80.564583 165.897858,79.984337 
	C164.712448,79.406120 163.922516,79.192032 163.127304,78.605301 
	C163.108032,77.487564 163.094040,76.742470 163.080048,75.997375 
	C164.573074,74.708832 166.370636,73.624390 167.429321,72.044739 
	C167.950455,71.267143 167.418015,69.388191 166.799255,68.340019 
	C165.990646,66.970245 164.624313,65.929718 163.497925,64.747543 
	C165.323395,64.770874 167.148865,64.794205 169.496140,65.205978 
	C170.841537,66.720024 171.665146,67.845619 172.488770,68.971222 
z"/>
<path fill="#EEB2E9" opacity="1.000000" stroke="none" 
	d="
M213.625458,52.022385 
	C214.175537,61.100864 214.425400,70.242767 214.810455,79.792778 
	C214.039276,79.924667 213.132919,79.648453 212.053192,79.142891 
	C211.592880,74.575020 211.305954,70.236488 211.025482,64.987747 
	C211.035385,60.388145 211.038834,56.698772 211.042282,53.009396 
	C211.803268,52.701534 212.564255,52.393673 213.625458,52.022385 
z"/>
<path fill="#D681CC" opacity="1.000000" stroke="none" 
	d="
M291.979065,54.007439 
	C292.252808,61.774429 292.229431,69.372391 292.184570,77.425980 
	C291.511963,78.340744 290.860809,78.799889 289.373535,79.848602 
	C289.373535,71.061058 289.340759,63.024555 289.471649,54.990719 
	C289.478088,54.594707 290.912476,54.221977 291.979065,54.007439 
z"/>
<path fill="#DD8DD3" opacity="1.000000" stroke="none" 
	d="
M236.563446,79.116425 
	C237.970291,78.976227 239.069794,78.985641 240.579407,78.994324 
	C234.171127,85.363754 229.393127,85.686073 221.868271,80.335960 
	C221.203568,79.863342 220.372177,79.625160 219.292206,78.734879 
	C219.018784,77.135315 219.071350,76.078949 219.123917,75.022591 
	C219.541779,75.022285 219.959625,75.021988 220.690872,75.018867 
	C221.700211,75.701324 222.442291,76.346130 223.084717,77.078362 
	C227.603958,82.229225 229.599411,82.568672 236.563446,79.116425 
z"/>
<path fill="#DD8CD4" opacity="1.000000" stroke="none" 
	d="
M277.899933,70.944534 
	C277.971527,65.889824 276.503265,61.687073 271.260468,59.216007 
	C272.316132,58.591362 273.805298,57.563164 274.930084,57.870087 
	C279.136719,59.017956 282.342834,67.286911 280.021271,71.750923 
	C278.944397,71.474075 278.422150,71.209305 277.899933,70.944534 
z"/>
<path fill="#FBC5F8" opacity="1.000000" stroke="none" 
	d="
M370.679749,51.834427 
	C370.781738,54.706249 370.551514,57.475376 370.124268,60.545132 
	C369.369598,61.352150 368.811920,61.858540 368.097626,62.597755 
	C367.152771,62.026279 365.733948,61.249550 365.697357,60.412373 
	C365.597076,58.118496 365.708771,55.661419 366.495728,53.552185 
	C366.851349,52.599026 369.008026,52.317802 370.679749,51.834427 
z"/>
<path fill="#DB94D6" opacity="1.000000" stroke="none" 
	d="
M255.017258,66.109818 
	C255.785126,64.128494 256.776978,62.434986 257.832397,60.417683 
	C260.568115,58.196220 262.767883,54.083176 266.837769,58.494678 
	C261.679688,60.793842 258.078278,64.134407 257.844055,70.582817 
	C256.940460,69.450287 256.090820,67.923950 255.017258,66.109818 
z"/>
<path fill="#D187CA" opacity="1.000000" stroke="none" 
	d="
M363.530701,50.002739 
	C363.993225,50.799530 363.987701,51.598751 363.968079,52.800957 
	C357.610077,52.928356 351.266113,52.652779 344.507843,52.414841 
	C344.079437,52.212799 344.065399,51.973122 344.026672,51.374340 
	C350.355499,50.678551 356.709045,50.341862 363.530701,50.002739 
z"/>
<path fill="#D68BD1" opacity="1.000000" stroke="none" 
	d="
M336.955780,69.464203 
	C335.160309,70.700195 333.364838,71.936180 331.472260,73.239006 
	C330.678131,74.841728 329.697388,76.820961 328.162323,78.879318 
	C327.607971,78.958443 327.173492,78.956665 327.191345,78.515686 
	C327.139893,75.718567 327.070648,73.362427 327.292419,70.758728 
	C330.709717,70.003479 333.836029,69.495796 336.940369,69.106857 
	C336.918396,69.225609 336.955780,69.464203 336.955780,69.464203 
z"/>
<path fill="#F8C4F6" opacity="1.000000" stroke="none" 
	d="
M162.788696,75.933083 
	C163.094040,76.742470 163.108032,77.487564 162.910797,78.798256 
	C162.451599,79.872902 162.203613,80.381943 161.494263,80.911209 
	C156.700073,80.974777 152.367249,81.018127 148.034439,81.061478 
	C147.243942,80.795090 146.453461,80.528709 145.411835,79.883286 
	C145.160690,79.504250 145.160767,79.108788 145.160767,79.108788 
	C145.160767,79.108788 145.649460,79.037582 146.347366,79.011787 
	C151.333267,78.985992 155.621246,78.985992 159.909241,78.985992 
	C159.924866,78.559898 159.940506,78.133804 159.956131,77.707718 
	C158.636200,77.135551 157.316269,76.563393 155.987564,75.726669 
	C155.967453,75.285973 155.956131,75.109825 156.366333,74.949364 
	C158.193939,74.955360 159.600006,74.945686 161.006073,74.936012 
	C161.503159,75.246941 162.000244,75.557861 162.788696,75.933083 
z"/>
<path fill="#D186C9" opacity="1.000000" stroke="none" 
	d="
M150.018478,49.953545 
	C153.327850,49.972183 156.656921,49.792210 159.935837,50.117645 
	C161.077026,50.230904 162.094193,51.593678 162.661758,52.683159 
	C161.083588,53.048618 160.011673,53.116707 158.489456,53.134361 
	C154.706787,52.988560 151.374405,52.893196 148.071899,52.482082 
	C148.740677,51.428738 149.379578,50.691143 150.018478,49.953545 
z"/>
<path fill="#CE84C7" opacity="1.000000" stroke="none" 
	d="
M338.941132,53.121086 
	C334.299866,53.048759 329.658630,52.976437 324.565491,52.854263 
	C325.347748,51.869114 326.476318,50.382175 327.839447,50.121365 
	C330.175140,49.674480 332.657501,49.994335 335.913208,49.994850 
	C337.501923,49.993484 338.255707,49.989513 339.009521,49.985538 
	C339.197998,50.241764 339.410522,50.476158 339.833313,50.836548 
	C340.000519,51.385639 339.981537,51.786900 339.703339,52.566772 
	C339.276459,53.003948 339.108795,53.062519 338.941132,53.121086 
z"/>
<path fill="#DF8FD7" opacity="1.000000" stroke="none" 
	d="
M149.980286,49.590408 
	C149.379578,50.691143 148.740677,51.428738 147.755020,52.599354 
	C146.690384,54.004547 145.972519,54.976727 145.254639,55.948906 
	C144.444092,55.965298 143.633560,55.981693 142.418045,56.002640 
	C142.557571,53.644268 142.852646,51.180508 143.750290,48.960373 
	C144.208527,47.827053 145.852951,46.321495 146.771683,46.441025 
	C147.929703,46.591690 148.894135,48.230499 149.980286,49.590408 
z"/>
<path fill="#D883D2" opacity="1.000000" stroke="none" 
	d="
M148.090958,81.442322 
	C152.367249,81.018127 156.700073,80.974777 161.645279,81.118011 
	C162.505966,81.535263 162.754272,81.765923 163.002563,81.996590 
	C159.472778,84.975266 151.182419,84.878471 148.090958,81.442322 
z"/>
<path fill="#D385C7" opacity="1.000000" stroke="none" 
	d="
M210.703384,53.042847 
	C211.038834,56.698772 211.035385,60.388145 211.012283,64.537552 
	C210.254242,64.998764 209.515839,64.999954 208.408615,64.996811 
	C207.631577,63.632202 207.223373,62.271923 206.779633,60.554909 
	C207.950897,57.824215 209.157684,55.450256 210.703384,53.042847 
z"/>
<path fill="#FED4FD" opacity="1.000000" stroke="none" 
	d="
M327.001404,71.006287 
	C327.070648,73.362427 327.139893,75.718567 326.959564,78.696243 
	C326.407715,79.806770 326.105469,80.295761 325.803223,80.784744 
	C325.103516,80.611275 324.403839,80.437805 323.489777,80.108200 
	C323.144897,78.902130 323.014404,77.852196 323.093292,76.135788 
	C323.793091,73.986725 324.283508,72.504135 325.145142,71.015961 
	C326.011383,71.009003 326.506409,71.007645 327.001404,71.006287 
z"/>
<path fill="#F8C4F6" opacity="1.000000" stroke="none" 
	d="
M158.939743,53.184795 
	C160.011673,53.116707 161.083588,53.048618 162.557648,52.994595 
	C162.970703,53.175739 162.981628,53.342823 163.027435,53.758823 
	C162.474854,55.420410 161.887405,56.833080 160.728500,58.574203 
	C158.431503,58.501789 156.705963,58.100914 155.280792,57.536247 
	C156.700684,55.976570 157.820206,54.580681 158.939743,53.184795 
z"/>
<path fill="#E495DC" opacity="1.000000" stroke="none" 
	d="
M200.884766,58.691917 
	C197.950134,59.304657 194.896210,59.622303 191.418747,59.877266 
	C193.570038,54.642597 197.293671,57.387394 200.884766,58.691917 
z"/>
<path fill="#DE8FD6" opacity="1.000000" stroke="none" 
	d="
M277.634125,71.022278 
	C278.422150,71.209305 278.944397,71.474075 279.727661,71.868378 
	C279.985352,72.444588 279.982025,72.891281 279.677673,73.792953 
	C278.920013,75.158173 278.463348,76.068405 278.006683,76.978638 
	C278.006683,76.978638 277.509155,76.981979 277.260498,76.982986 
	C276.658539,76.250381 276.305206,75.516777 275.998199,74.291031 
	C276.003326,73.167458 275.962158,72.536034 275.920959,71.904617 
	C276.403412,71.636414 276.885864,71.368217 277.634125,71.022278 
z"/>
<path fill="#F4C5F2" opacity="1.000000" stroke="none" 
	d="
M335.942261,64.799622 
	C339.590149,63.591866 338.832855,66.345673 339.024506,68.608650 
	C338.552216,69.065979 338.089386,69.152222 337.291199,69.351334 
	C336.955780,69.464203 336.918396,69.225609 336.925659,68.746628 
	C336.602692,67.111641 336.272491,65.955627 335.942261,64.799622 
z"/>
<path fill="#E48EDC" opacity="1.000000" stroke="none" 
	d="
M394.019897,69.661896 
	C393.540405,68.510620 393.080811,67.021164 392.811920,65.266251 
	C393.348358,66.441772 393.694061,67.882744 394.019897,69.661896 
z"/>
<path fill="#E495DC" opacity="1.000000" stroke="none" 
	d="
M163.259399,81.842682 
	C162.754272,81.765923 162.505966,81.535263 162.106659,81.097794 
	C162.203613,80.381943 162.451599,79.872902 162.916092,79.170906 
	C163.922516,79.192032 164.712448,79.406120 165.745178,79.816261 
	C165.164093,80.571136 164.340164,81.129951 163.259399,81.842682 
z"/>
<path fill="#EEB2E9" opacity="1.000000" stroke="none" 
	d="
M218.781754,75.008003 
	C219.071350,76.078949 219.018784,77.135315 218.970001,78.588318 
	C218.552933,79.003502 218.132080,79.022026 217.396393,79.046852 
	C217.062958,77.961143 217.044342,76.869133 217.050888,75.368317 
	C217.530563,74.970810 217.985077,74.982109 218.781754,75.008003 
z"/>
<path fill="#E495DC" opacity="1.000000" stroke="none" 
	d="
M171.079193,80.846054 
	C171.587540,79.947449 172.474380,79.049088 173.641449,77.990311 
	C173.100342,78.835365 172.279022,79.840828 171.079193,80.846054 
z"/>
<path fill="#DD8CD4" opacity="1.000000" stroke="none" 
	d="
M278.308411,76.863663 
	C278.463348,76.068405 278.920013,75.158173 279.674103,74.127930 
	C279.517700,74.921509 279.063904,75.835098 278.308411,76.863663 
z"/>
<path fill="#EEB2E9" opacity="1.000000" stroke="none" 
	d="
M216.933075,51.677826 
	C216.265839,51.953621 215.498032,51.957302 214.346497,51.942276 
	C214.919342,51.750950 215.875916,51.578331 216.933075,51.677826 
z"/>
<path fill="#E495DC" opacity="1.000000" stroke="none" 
	d="
M144.832397,79.033661 
	C145.160767,79.108788 145.160690,79.504250 145.155884,79.700615 
	C144.120789,79.479187 143.090515,79.061386 142.033493,78.340530 
	C142.839188,78.344498 143.671600,78.651512 144.832397,79.033661 
z"/>
<path fill="#DD8DD3" opacity="1.000000" stroke="none" 
	d="
M242.241837,79.182587 
	C242.692749,78.669884 243.380219,78.357361 244.346146,78.013458 
	C244.575714,78.521538 244.526825,79.060997 244.340942,79.840317 
	C243.628738,79.847702 243.053574,79.615227 242.241837,79.182587 
z"/>
<path fill="#DD92D5" opacity="1.000000" stroke="none" 
	d="
M338.904114,49.711433 
	C338.255707,49.989513 337.501923,49.993484 336.371338,49.989403 
	C336.929260,49.800014 337.863953,49.618671 338.904114,49.711433 
z"/>
<path fill="#E495DC" opacity="1.000000" stroke="none" 
	d="
M169.039032,81.250092 
	C169.026123,80.975922 169.480286,80.927231 169.707870,80.920715 
	C170.127228,81.528740 170.319000,82.143265 170.510757,82.757797 
	C170.321838,82.868416 170.132919,82.979034 169.944016,83.089653 
	C169.646652,82.567856 169.349304,82.046059 169.039032,81.250092 
z"/>
<path fill="#EEB2E9" opacity="1.000000" stroke="none" 
	d="
M217.392029,54.023006 
	C217.101044,53.633575 217.061188,53.157322 217.035248,52.322823 
	C217.544022,52.184933 218.038895,52.405300 218.727692,52.817722 
	C218.495483,53.318581 218.069336,53.627384 217.392029,54.023006 
z"/>
<path fill="#E8ABE5" opacity="1.000000" stroke="none" 
	d="
M326.115417,80.753937 
	C326.105469,80.295761 326.407715,79.806770 326.941711,79.137222 
	C327.173492,78.956665 327.607971,78.958443 327.825317,78.971024 
	C327.504333,79.563438 326.965973,80.143280 326.115417,80.753937 
z"/>
<path fill="#D798D2" opacity="1.000000" stroke="none" 
	d="
M200.024063,64.969681 
	C203.195084,64.867363 205.118393,66.984329 204.460129,69.516846 
	C203.851974,71.856522 201.739822,74.350754 199.602554,75.517326 
	C198.534012,76.100555 195.325119,74.331123 194.169998,72.804375 
	C192.599258,70.728264 191.955048,67.842896 195.763138,66.170044 
	C196.131195,66.116089 196.151688,66.133369 196.118546,66.514694 
	C196.896255,68.711349 197.640549,70.564835 198.624420,72.280960 
	C198.719223,72.446304 201.069901,71.755730 201.068771,71.467575 
	C201.061554,69.622528 200.705536,67.776436 200.421860,65.937225 
	C200.374405,65.629639 200.120377,65.353920 199.977280,65.039986 
	C199.992767,65.016487 200.024063,64.969681 200.024063,64.969681 
z"/>
<path fill="#D798D2" opacity="1.000000" stroke="none" 
	d="
M196.121674,66.112015 
	C197.341064,65.552574 198.569977,64.997192 199.911469,64.705750 
	C200.024063,64.969681 199.992767,65.016487 199.649734,65.088509 
	C198.255035,65.484810 197.203354,65.809090 196.151688,66.133369 
	C196.151688,66.133369 196.131195,66.116089 196.121674,66.112015 
z"/>
<path fill="#CA97C6" opacity="1.000000" stroke="none" 
	d="
M275.520111,71.847946 
	C275.962158,72.536034 276.003326,73.167458 275.897980,74.002335 
	C274.206360,74.694077 272.679108,75.251579 271.112366,75.656128 
	C267.948242,76.473145 265.315582,76.046432 263.639709,71.257629 
	C267.880859,71.454788 271.500031,71.623039 275.520111,71.847946 
z"/>
<path fill="#BF92BB" opacity="1.000000" stroke="none" 
	d="
M264.440582,66.180573 
	C266.898529,62.040749 269.555267,63.041824 272.224243,65.239662 
	C272.223694,65.799698 272.223145,66.359734 272.222595,66.919769 
	C269.678497,66.787491 267.134369,66.655205 264.440582,66.180573 
z"/>
<path fill="#D090C7" opacity="1.000000" stroke="none" 
	d="
M234.375427,74.805725 
	C231.968872,74.985764 228.966034,75.754486 227.905411,74.653015 
	C226.487381,73.180382 225.606857,69.902954 226.283020,68.054398 
	C226.993027,66.113243 229.814163,64.944283 231.712708,63.437870 
	C233.289169,65.473396 235.350128,67.319748 236.248352,69.620110 
	C236.735703,70.868164 235.243332,72.889259 234.375427,74.805725 
M228.268967,71.343437 
	C229.751694,71.397064 231.234406,71.450699 232.717117,71.504326 
	C232.506424,70.532616 232.295731,69.560898 232.085037,68.589180 
	C230.771988,69.297119 229.458923,70.005058 228.268967,71.343437 
z"/>
<path fill="#FFDFFF" opacity="1.000000" stroke="none" 
	d="
M158.489456,53.134361 
	C157.820206,54.580681 156.700684,55.976570 154.867706,57.579163 
	C151.913498,57.839634 149.480179,58.163593 150.188522,61.096016 
	C150.465240,62.241634 152.675827,62.920124 154.005600,63.811375 
	C156.046158,65.006088 160.527740,61.856236 159.705994,67.777786 
	C157.303024,68.507484 155.294113,68.476654 153.493683,69.074142 
	C152.234848,69.491905 150.242294,70.963234 150.368057,71.622368 
	C150.646484,73.081680 152.053268,74.325722 153.367554,75.743271 
	C154.488953,75.883064 155.242645,75.937141 155.996338,75.991226 
	C157.316269,76.563393 158.636200,77.135551 159.956131,77.707718 
	C159.940506,78.133804 159.924866,78.559898 159.909241,78.985992 
	C155.621246,78.985992 151.333267,78.985992 146.593384,78.990784 
	C145.916275,71.580002 145.691055,64.164429 145.360229,56.348877 
	C145.972519,54.976727 146.690384,54.004547 147.725143,52.915100 
	C151.374405,52.893196 154.706787,52.988560 158.489456,53.134361 
z"/>
<path fill="#D38DC9" opacity="1.000000" stroke="none" 
	d="
M152.999863,75.657562 
	C152.053268,74.325722 150.646484,73.081680 150.368057,71.622368 
	C150.242294,70.963234 152.234848,69.491905 153.493683,69.074142 
	C155.294113,68.476654 157.303024,68.507484 159.585541,68.086548 
	C160.290710,69.985733 160.633240,72.068382 160.990921,74.543518 
	C159.600006,74.945686 158.193939,74.955360 156.150146,74.785461 
	C154.674911,74.956436 153.837387,75.306999 152.999863,75.657562 
z"/>
<path fill="#FFE6FF" opacity="1.000000" stroke="none" 
	d="
M172.737854,69.142807 
	C171.665146,67.845619 170.841537,66.720024 169.809143,65.313171 
	C170.866272,64.581627 172.132217,64.131348 173.825623,64.131836 
	C175.480576,64.351677 176.708038,64.120743 177.935516,63.889809 
	C177.935516,63.889809 177.974167,63.920612 178.264465,64.043510 
	C179.092194,64.841507 179.629593,65.516617 180.167007,66.191719 
	C179.767838,67.561363 179.368652,68.931007 178.957703,70.664185 
	C175.796387,74.502350 174.375885,71.963295 172.737854,69.142807 
z"/>
<path fill="#CD8CC6" opacity="1.000000" stroke="none" 
	d="
M154.182190,63.506878 
	C152.675827,62.920124 150.465240,62.241634 150.188522,61.096016 
	C149.480179,58.163593 151.913498,57.839634 154.567337,57.742954 
	C156.705963,58.100914 158.431503,58.501789 160.554871,58.859138 
	C161.007736,63.664444 155.945374,60.821129 154.182190,63.506878 
z"/>
<path fill="#F9CEF7" opacity="1.000000" stroke="none" 
	d="
M180.428558,65.992905 
	C179.629593,65.516617 179.092194,64.841507 178.248169,64.036346 
	C179.777786,62.915386 181.614029,61.924488 183.844971,60.955925 
	C183.056488,62.583542 181.873291,64.188820 180.428558,65.992905 
z"/>
<path fill="#F9CEF7" opacity="1.000000" stroke="none" 
	d="
M177.659012,63.788895 
	C176.708038,64.120743 175.480576,64.351677 174.133636,64.282150 
	C175.136948,63.883793 176.259720,63.785885 177.659012,63.788895 
z"/>
<path fill="#FFE8FF" opacity="1.000000" stroke="none" 
	d="
M335.598053,64.800995 
	C336.272491,65.955627 336.602692,67.111641 336.947601,68.627884 
	C333.836029,69.495796 330.709717,70.003479 327.292419,70.758728 
	C326.506409,71.007645 326.011383,71.009003 325.168732,70.599960 
	C324.775848,68.538841 324.730621,66.888123 324.987122,64.927475 
	C325.711517,64.220459 326.134216,63.823376 326.929688,63.545097 
	C328.844910,63.830338 330.387360,63.996769 331.929810,64.163200 
	C333.037811,64.376259 334.145844,64.589317 335.598053,64.800995 
z"/>
<path fill="#D098CA" opacity="1.000000" stroke="none" 
	d="
M331.947388,63.718285 
	C330.387360,63.996769 328.844910,63.830338 326.857178,63.231602 
	C326.094482,62.221161 325.777039,61.643021 325.454895,61.041088 
	C325.450165,61.017300 325.459412,60.922474 325.459412,60.922474 
	C327.375122,59.919025 329.290802,58.915577 331.600281,57.937004 
	C331.984314,59.732380 331.974640,61.502872 331.947388,63.718285 
z"/>
<path fill="#F4B9F0" opacity="1.000000" stroke="none" 
	d="
M338.951538,53.516548 
	C339.108795,53.062519 339.276459,53.003948 339.699493,52.867867 
	C339.864075,54.140812 339.773285,55.491264 339.386780,56.972523 
	C339.048004,56.039555 339.004944,54.975780 338.951538,53.516548 
z"/>
<path fill="#EEB2E9" opacity="1.000000" stroke="none" 
	d="
M324.685425,65.237404 
	C324.730621,66.888123 324.775848,68.538841 324.797485,70.605560 
	C324.283508,72.504135 323.793091,73.986725 323.089111,75.737549 
	C322.735931,72.569977 322.596252,69.134163 322.952484,65.372192 
	C323.860748,65.109818 324.273071,65.173607 324.685425,65.237404 
z"/>
<path fill="#FED4FD" opacity="1.000000" stroke="none" 
	d="
M324.987122,64.927475 
	C324.273071,65.173607 323.860748,65.109818 323.132202,65.016357 
	C322.836517,64.234993 322.857025,63.483303 323.334290,62.264751 
	C324.347260,61.553551 324.903412,61.309212 325.459595,61.064873 
	C325.777039,61.643021 326.094482,62.221161 326.484406,63.112801 
	C326.134216,63.823376 325.711517,64.220459 324.987122,64.927475 
z"/>
<path fill="#EEB2E9" opacity="1.000000" stroke="none" 
	d="
M325.454895,61.041084 
	C324.903412,61.309212 324.347260,61.553551 323.345703,61.888802 
	C322.707672,61.436531 322.514954,60.893356 322.373230,60.054771 
	C323.193573,60.006969 323.962952,60.254570 325.095856,60.712322 
	C325.459412,60.922474 325.450165,61.017300 325.454895,61.041084 
z"/>
<path fill="#F8CAF6" opacity="1.000000" stroke="none" 
	d="
M379.072571,72.852829 
	C378.625763,71.982597 378.400299,70.817101 377.696564,70.289543 
	C372.754059,66.584351 374.301331,63.134415 378.201965,59.449917 
	C382.072601,59.714733 385.671844,60.210587 389.615143,60.860126 
	C389.772064,62.131805 389.584930,63.249798 388.823486,64.623802 
	C386.675415,64.391342 385.115936,63.598988 383.522675,63.523930 
	C382.503418,63.475914 381.434265,64.487442 380.387451,65.023956 
	C381.102142,65.792435 381.686127,66.967445 382.557770,67.247742 
	C384.592072,67.901871 386.764587,68.125946 388.881134,68.524216 
	C391.004578,72.301651 392.165131,76.546532 387.771484,78.952812 
	C385.137817,80.395203 381.258575,80.068726 378.053253,79.654465 
	C377.089447,79.529892 376.509247,76.436676 375.884064,74.388596 
	C376.424805,74.071159 376.834808,74.068527 377.685883,74.188126 
	C378.430908,74.229218 378.734863,74.148079 379.038818,74.066940 
	C379.038818,74.066940 379.057068,74.048233 379.263733,74.017868 
	C379.337799,73.609283 379.205200,73.231056 379.072571,72.852829 
z"/>
<path fill="#CC95C6" opacity="1.000000" stroke="none" 
	d="
M388.907013,68.072845 
	C386.764587,68.125946 384.592072,67.901871 382.557770,67.247742 
	C381.686127,66.967445 381.102142,65.792435 380.387451,65.023956 
	C381.434265,64.487442 382.503418,63.475914 383.522675,63.523930 
	C385.115936,63.598988 386.675415,64.391342 388.623871,64.904732 
	C388.976654,65.826920 388.954773,66.724197 388.907013,68.072845 
z"/>
<path fill="#DD8ED5" opacity="1.000000" stroke="none" 
	d="
M379.067932,73.156265 
	C379.205200,73.231056 379.337799,73.609283 379.273254,74.027008 
	C379.071808,73.864227 379.067535,73.661957 379.067932,73.156265 
z"/>
<path fill="#DD8ED5" opacity="1.000000" stroke="none" 
	d="
M378.744110,74.062820 
	C378.734863,74.148079 378.430908,74.229218 377.993469,74.189392 
	C378.056458,74.065178 378.252930,74.061943 378.744110,74.062820 
z"/>
<path fill="#E495DC" opacity="1.000000" stroke="none" 
	d="
M153.367554,75.743271 
	C153.837387,75.306999 154.674911,74.956436 155.728607,74.769775 
	C155.956131,75.109825 155.967453,75.285973 155.987564,75.726669 
	C155.242645,75.937141 154.488953,75.883064 153.367554,75.743271 
z"/>
<path fill="#E489DB" opacity="1.000000" stroke="none" 
	d="
M196.118546,66.514694 
	C197.203354,65.809090 198.255035,65.484810 199.634247,65.112007 
	C200.120377,65.353920 200.374405,65.629639 200.421860,65.937225 
	C200.705536,67.776436 201.061554,69.622528 201.068771,71.467575 
	C201.069901,71.755730 198.719223,72.446304 198.624420,72.280960 
	C197.640549,70.564835 196.896255,68.711349 196.118546,66.514694 
z"/>
<path fill="#DC8ED1" opacity="1.000000" stroke="none" 
	d="
M228.207428,71.028214 
	C229.458923,70.005058 230.771988,69.297119 232.085022,68.589180 
	C232.295731,69.560898 232.506424,70.532616 232.717133,71.504333 
	C231.234406,71.450699 229.751694,71.397064 228.207428,71.028214 
z"/>
</svg>